<?xml version="1.0" encoding="utf-8"?>
<!-- Svg Vector Icons : http://www.onlinewebfonts.com/icon -->
<!DOCTYPE svg PUBLIC "-//W3C//DTD SVG 1.1//EN" "http://www.w3.org/Graphics/SVG/1.1/DTD/svg11.dtd">
<svg version="1.1" xmlns="http://www.w3.org/2000/svg" xmlns:xlink="http://www.w3.org/1999/xlink" x="0px" y="0px" viewBox="0 0 1000 1000" enable-background="new 0 0 1000 1000" xml:space="preserve">
<metadata> Svg Vector Icons : http://www.onlinewebfonts.com/icon </metadata>
<g><path d="M500,928.8c-236.8,0-428.8-192-428.8-428.8c0-236.7,192-428.8,428.8-428.8c236.8,0,428.8,192,428.8,428.8C928.8,736.7,736.8,928.8,500,928.8L500,928.8z M500,10C229.4,10,10,229.3,10,500c0,270.7,219.4,490,490,490c270.6,0,490-219.3,490-490C990,229.3,770.6,10,500,10L500,10z M700.1,473L526.9,299.7c-12-11.9-31.4-11.9-43.3,0c-12,12.3-12,31.5,0,43.5l126.2,126.2H285.6c-16.9,0-30.6,13.8-30.6,30.6c0,16.8,13.7,30.6,30.6,30.6h324.2L483.6,656.8c-12,11.9-12,31.5,0,43.5c11.9,11.9,31.3,11.9,43.3,0L700.1,527c7.3-7.3,9.6-17.5,8-27C709.8,490.5,707.5,480.4,700.1,473L700.1,473z"/></g>
</svg>